<?xml version="1.0" encoding="UTF-8" standalone="no"?>
<!-- Created with Inkscape (http://www.inkscape.org/) -->

<svg
   width="92"
   height="51"
   viewBox="0 0 920 204"
   version="1.1"
   id="svg1"
   inkscape:version="1.4.3 (0d15f75, 2025-12-25)"
   sodipodi:docname="ql-logo.svg"
   xmlns:inkscape="http://www.inkscape.org/namespaces/inkscape"
   xmlns:sodipodi="http://sodipodi.sourceforge.net/DTD/sodipodi-0.dtd"
   xmlns="http://www.w3.org/2000/svg"
   xmlns:svg="http://www.w3.org/2000/svg">
  <sodipodi:namedview
     id="namedview1"
     pagecolor="#ffffff"
     bordercolor="#000000"
     borderopacity="0.25"
     inkscape:showpageshadow="2"
     inkscape:pageopacity="0.0"
     inkscape:pagecheckerboard="0"
     inkscape:deskcolor="#d1d1d1"
     inkscape:document-units="mm"
     inkscape:zoom="8.9197829"
     inkscape:cx="44.059368"
     inkscape:cy="17.208939"
     inkscape:window-width="1920"
     inkscape:window-height="1129"
     inkscape:window-x="-8"
     inkscape:window-y="-8"
     inkscape:window-maximized="1"
     inkscape:current-layer="layer1" />
  <defs
     id="defs1" />
  <g
     inkscape:label="Layer 1"
     inkscape:groupmode="layer"
     id="layer1"
     transform="translate(-0.569139,-303.37943)">
    <path
       color="currentColor"
       id="path1"
       d="m 81.446683,398.8277 c 0,98 79.999997,178 177.999997,178 31,0 60,-8 86,-22 -20,-32 -32,-68 -32,-105 l 60,3 c 0,24 6,47 17,67 30,-32 48,-74 48,-121 0,-98 -81,-178 -179,-178 -98,0 -177.999997,80 -177.999997,178 z m -75.0000014,-4 c 0,-131 115.9999984,-237 251.9999984,-237 136,0 244,106 244,237 0,65 -26,127 -68,174 24,16 52,26 82,26 78,0 143,-64 143,-142 l 51,-3 c 0,105 -84,203 -193,203 -46,0 -90,-18 -125,-46 -38,26 -82,42 -131,42 -136,0 -254.9999984,-123 -254.9999984,-254 z m 573.9999984,120 -60,3 c 0,-105 95,-203 204,-203 109,0 193,98 193,203 l -51,-3 c 0,-78 -65,-142 -143,-142 -78,0 -143,64 -143,142 z" />
  </g>
</svg>
